<svg xmlns="http://www.w3.org/2000/svg" xmlns:xlink="http://www.w3.org/1999/xlink" xmlns:lucid="lucid" width="920" height="360"><g transform="translate(-400 -220)" lucid:page-tab-id="0_0"><path d="M420 240h880v320H420z" fill="#fff"/><path d="M429.94 240h9.95m4.96 0h9.94m4.97 0h9.95m4.97 0h9.93m4.97 0h9.95m4.97 0h9.94m4.98 0h9.94m4.97 0h9.94m4.97 0h9.94m4.98 0h9.94m4.98 0h9.94m4.97 0h9.95m4.98 0h9.94m4.97 0h9.95m4.96 0h9.94m4.97 0h9.95m4.97 0h9.93m4.97 0h9.95m4.97 0h9.94m4.97 0h9.95m4.97 0h9.94m4.96 0h9.95m4.98 0h9.94m4.97 0h9.94m4.97 0h9.95m4.97 0h9.95m4.97 0h9.94m4.98 0h9.94m4.97 0h9.94m5 0h9.93m4.97 0h9.94m4.98 0h9.94m4.97 0h9.95m4.97 0h9.94m4.96 0H947m4.98 0h9.94m4.97 0h9.94m4.97 0h9.95m4.97 0h9.95m4.97 0h9.94m4.97 0h9.95m4.97 0h9.94m4.98 0h9.95m4.97 0h9.94m4.97 0h9.96m4.97 0h9.94m4.98 0h9.94m4.96 0h9.94m4.98 0h9.94m4.97 0h9.93m4.98 0h9.95m4.97 0h9.94m4.98 0h9.94m4.97 0h9.95m4.97 0h9.94m4.98 0h9.95m4.97 0h9.94m4.97 0h9.96m4.97 0h4.97v5.08m0 5.08v10.16m0 5.08v10.16m0 5.07v10.16m0 5.07v10.16m0 5.08v10.17m0 5.08v10.16m0 5.1v10.15m0 5.08v10.15m0 5.08v10.16m0 5.08v10.16m0 5.08v10.16m0 5.08v10.16m0 5.08v10.15m0 5.08v10.16m0 5.1v10.15m0 5.08v10.16m0 5.07v10.16m0 5.08v10.17m0 5.07v10.16m0 5.08v10.16m0 5.08V560h-4.97m-4.97 0h-9.95m-4.96 0h-9.94m-4.97 0h-9.95m-4.97 0h-9.93m-4.97 0h-9.95m-4.97 0h-9.94m-4.98 0h-9.94m-4.97 0h-9.94m-4.97 0h-9.94m-4.98 0h-9.94m-4.98 0h-9.94m-4.97 0h-9.95m-4.98 0h-9.94m-4.97 0h-9.95m-4.96 0h-9.94m-4.97 0h-9.95m-4.97 0h-9.93m-4.97 0h-9.95m-4.97 0h-9.94m-4.97 0h-9.95m-4.97 0h-9.94m-4.96 0h-9.95m-4.98 0h-9.94m-4.97 0h-9.94m-4.97 0h-9.95m-4.97 0h-9.95m-4.97 0h-9.94m-4.98 0h-9.94m-4.97 0h-9.94m-5 0h-9.93m-4.97 0h-9.94m-4.98 0h-9.94m-4.97 0h-9.95m-4.97 0h-9.94m-4.96 0H773m-4.98 0h-9.94m-4.97 0h-9.94m-4.97 0h-9.95m-4.97 0h-9.95m-4.97 0h-9.94m-4.97 0h-9.95m-4.97 0h-9.94m-4.98 0h-9.95m-4.97 0h-9.94m-4.97 0h-9.96m-4.97 0h-9.94m-4.98 0H594m-4.96 0h-9.94m-4.98 0h-9.94m-4.97 0h-9.93m-4.98 0h-9.95m-4.97 0h-9.94m-4.98 0h-9.94m-4.97 0h-9.95m-4.97 0h-9.94m-4.98 0h-9.95m-4.97 0h-9.94m-4.97 0h-9.96m-4.97 0H420v-5.08m0-5.08v-10.16m0-5.08v-10.16m0-5.07V509.2m0-5.07v-10.16m0-5.08v-10.17m0-5.08V463.5m0-5.1v-10.15m0-5.08v-10.15m0-5.08v-10.16m0-5.08v-10.16m0-5.08V387.3m0-5.08v-10.16m0-5.08v-10.15m0-5.08V341.6m0-5.1v-10.15m0-5.08V311.1m0-5.07v-10.16m0-5.08v-10.17m0-5.07V265.4m0-5.08v-10.16m0-5.08V240h4.97" stroke="#000" fill="none"/><path d="M560 428c0 6.63-26.86 12-60 12s-60-5.37-60-12v-96c0-6.63 26.86-12 60-12s60 5.37 60 12z" stroke="#3a414a" fill="#fff"/><path d="M560 332c0 6.63-26.86 12-60 12s-60-5.37-60-12" stroke="#3a414a" fill="none"/><use xlink:href="#a" transform="matrix(1,0,0,1,445,349) translate(27.283950617283953 47.34027777777778)"/><path d="M584.24 384.24a6 6 0 0 1 0-8.48l31.52-31.52A2.5 2.5 0 0 1 620 346v8a6 6 0 0 0 6 6h68a6 6 0 0 0 6-6v-8a2.5 2.5 0 0 1 4.24-1.76l31.52 31.52a6 6 0 0 1 0 8.48l-31.52 31.52A2.5 2.5 0 0 1 700 414v-8a6 6 0 0 0-6-6h-68a6 6 0 0 0-6 6v8a2.5 2.5 0 0 1-4.24 1.76zM760 260h160v100H760z" stroke="#3a414a" fill="#fff"/><use xlink:href="#b" transform="matrix(1,0,0,1,772,272) translate(27.938271604938272 29.65277777777778)"/><use xlink:href="#c" transform="matrix(1,0,0,1,772,272) translate(19.913580246913583 56.31944444444445)"/><path d="M760 360h160v140H760z" stroke="#3a414a" fill="#fff"/><use xlink:href="#d" transform="matrix(1,0,0,1,772,372) translate(13.771604938271608 50.40277777777778)"/><use xlink:href="#e" transform="matrix(1,0,0,1,772,372) translate(29.820987654320987 77.06944444444446)"/><path d="M944.24 384.24a6 6 0 0 1 0-8.48l31.52-31.52A2.5 2.5 0 0 1 980 346v8a6 6 0 0 0 6 6h68a6 6 0 0 0 6-6v-8a2.5 2.5 0 0 1 4.24-1.76l31.52 31.52a6 6 0 0 1 0 8.48l-31.52 31.52A2.5 2.5 0 0 1 1060 414v-8a6 6 0 0 0-6-6h-68a6 6 0 0 0-6 6v8a2.5 2.5 0 0 1-4.24 1.76zM1120 320h160v100h-160z" stroke="#3a414a" fill="#fff"/><use xlink:href="#f" transform="matrix(1,0,0,1,1132,332) translate(44.60493827160494 41.52777777777778)"/><path d="M1120 420h160v45h-160z" stroke="#3a414a" fill="#fff"/><use xlink:href="#g" transform="matrix(1,0,0,1,1132,432) translate(35.9320987654321 17.77777777777778)"/><path d="M790 506a6 6 0 0 1 6-6h88a6 6 0 0 1 6 6v48a6 6 0 0 1-6 6h-88a6 6 0 0 1-6-6z" stroke="#000" stroke-opacity="0" fill="#fff" fill-opacity="0"/><g><use xlink:href="#h" transform="matrix(1,0,0,1,795,505) translate(1.9135802469135825 30.27777777777778)"/></g><defs><path fill="#3a414a" d="M30-248c118-7 216 8 213 122C240-48 200 0 122 0H30v-248zM63-27c89 8 146-16 146-99s-60-101-146-95v194" id="i"/><path fill="#3a414a" d="M24-231v-30h32v30H24zM24 0v-190h32V0H24" id="j"/><path fill="#3a414a" d="M135-143c-3-34-86-38-87 0 15 53 115 12 119 90S17 21 10-45l28-5c4 36 97 45 98 0-10-56-113-15-118-90-4-57 82-63 122-42 12 7 21 19 24 35" id="k"/><path fill="#3a414a" d="M96-169c-40 0-48 33-48 73s9 75 48 75c24 0 41-14 43-38l32 2c-6 37-31 61-74 61-59 0-76-41-82-99-10-93 101-131 147-64 4 7 5 14 7 22l-32 3c-4-21-16-35-41-35" id="l"/><path fill="#3a414a" d="M100-194c62-1 85 37 85 99 1 63-27 99-86 99S16-35 15-95c0-66 28-99 85-99zM99-20c44 1 53-31 53-75 0-43-8-75-51-75s-53 32-53 75 10 74 51 75" id="m"/><g id="a"><use transform="matrix(0.06172839506172839,0,0,0.06172839506172839,0,0)" xlink:href="#i"/><use transform="matrix(0.06172839506172839,0,0,0.06172839506172839,15.987654320987653,0)" xlink:href="#j"/><use transform="matrix(0.06172839506172839,0,0,0.06172839506172839,20.864197530864196,0)" xlink:href="#k"/><use transform="matrix(0.06172839506172839,0,0,0.06172839506172839,31.975308641975307,0)" xlink:href="#l"/><use transform="matrix(0.06172839506172839,0,0,0.06172839506172839,43.08641975308642,0)" xlink:href="#m"/></g><path fill="#3a414a" d="M185-189c-5-48-123-54-124 2 14 75 158 14 163 119 3 78-121 87-175 55-17-10-28-26-33-46l33-7c5 56 141 63 141-1 0-78-155-14-162-118-5-82 145-84 179-34 5 7 8 16 11 25" id="n"/><path fill="#3a414a" d="M59-47c-2 24 18 29 38 22v24C64 9 27 4 27-40v-127H5v-23h24l9-43h21v43h35v23H59v120" id="o"/><path fill="#3a414a" d="M100-194c63 0 86 42 84 106H49c0 40 14 67 53 68 26 1 43-12 49-29l28 8c-11 28-37 45-77 45C44 4 14-33 15-96c1-61 26-98 85-98zm52 81c6-60-76-77-97-28-3 7-6 17-6 28h103" id="p"/><path fill="#3a414a" d="M210-169c-67 3-38 105-44 169h-31v-121c0-29-5-50-35-48C34-165 62-65 56 0H25l-1-190h30c1 10-1 24 2 32 10-44 99-50 107 0 11-21 27-35 58-36 85-2 47 119 55 194h-31v-121c0-29-5-49-35-48" id="q"/><path fill="#3a414a" d="M141-36C126-15 110 5 73 4 37 3 15-17 15-53c-1-64 63-63 125-63 3-35-9-54-41-54-24 1-41 7-42 31l-33-3c5-37 33-52 76-52 45 0 72 20 72 64v82c-1 20 7 32 28 27v20c-31 9-61-2-59-35zM48-53c0 20 12 33 32 33 41-3 63-29 60-74-43 2-92-5-92 41" id="r"/><g id="b"><use transform="matrix(0.06172839506172839,0,0,0.06172839506172839,0,0)" xlink:href="#n"/><use transform="matrix(0.06172839506172839,0,0,0.06172839506172839,14.814814814814813,0)" xlink:href="#j"/><use transform="matrix(0.06172839506172839,0,0,0.06172839506172839,19.691358024691354,0)" xlink:href="#k"/><use transform="matrix(0.06172839506172839,0,0,0.06172839506172839,30.802469135802465,0)" xlink:href="#o"/><use transform="matrix(0.06172839506172839,0,0,0.06172839506172839,36.9753086419753,0)" xlink:href="#p"/><use transform="matrix(0.06172839506172839,0,0,0.06172839506172839,49.32098765432098,0)" xlink:href="#q"/><use transform="matrix(0.06172839506172839,0,0,0.06172839506172839,67.77777777777777,0)" xlink:href="#r"/></g><path fill="#3a414a" d="M140-251c81 0 123 46 123 126C263-46 219 4 140 4 59 4 17-45 17-125s42-126 123-126zm0 227c63 0 89-41 89-101s-29-99-89-99c-61 0-89 39-89 99S79-25 140-24" id="s"/><path fill="#3a414a" d="M115-194c55 1 70 41 70 98S169 2 115 4C84 4 66-9 55-30l1 105H24l-1-265h31l2 30c10-21 28-34 59-34zm-8 174c40 0 45-34 45-75s-6-73-45-74c-42 0-51 32-51 76 0 43 10 73 51 73" id="t"/><path fill="#3a414a" d="M114-163C36-179 61-72 57 0H25l-1-190h30c1 12-1 29 2 39 6-27 23-49 58-41v29" id="u"/><path fill="#3a414a" d="M108 0H70L1-190h34L89-25l56-165h34" id="v"/><g id="c"><use transform="matrix(0.06172839506172839,0,0,0.06172839506172839,0,0)" xlink:href="#s"/><use transform="matrix(0.06172839506172839,0,0,0.06172839506172839,17.28395061728395,0)" xlink:href="#t"/><use transform="matrix(0.06172839506172839,0,0,0.06172839506172839,29.629629629629626,0)" xlink:href="#p"/><use transform="matrix(0.06172839506172839,0,0,0.06172839506172839,41.9753086419753,0)" xlink:href="#u"/><use transform="matrix(0.06172839506172839,0,0,0.06172839506172839,49.32098765432098,0)" xlink:href="#r"/><use transform="matrix(0.06172839506172839,0,0,0.06172839506172839,61.66666666666666,0)" xlink:href="#o"/><use transform="matrix(0.06172839506172839,0,0,0.06172839506172839,67.83950617283949,0)" xlink:href="#j"/><use transform="matrix(0.06172839506172839,0,0,0.06172839506172839,72.71604938271604,0)" xlink:href="#v"/><use transform="matrix(0.06172839506172839,0,0,0.06172839506172839,83.82716049382715,0)" xlink:href="#m"/></g><path fill="#3a414a" d="M30-248c87 1 191-15 191 75 0 78-77 80-158 76V0H30v-248zm33 125c57 0 124 11 124-50 0-59-68-47-124-48v98" id="w"/><path fill="#3a414a" d="M177-190C167-65 218 103 67 71c-23-6-38-20-44-43l32-5c15 47 100 32 89-28v-30C133-14 115 1 83 1 29 1 15-40 15-95c0-56 16-97 71-98 29-1 48 16 59 35 1-10 0-23 2-32h30zM94-22c36 0 50-32 50-73 0-42-14-75-50-75-39 0-46 34-46 75s6 73 46 73" id="x"/><g id="d"><use transform="matrix(0.06172839506172839,0,0,0.06172839506172839,0,0)" xlink:href="#w"/><use transform="matrix(0.06172839506172839,0,0,0.06172839506172839,14.814814814814813,0)" xlink:href="#u"/><use transform="matrix(0.06172839506172839,0,0,0.06172839506172839,22.160493827160494,0)" xlink:href="#m"/><use transform="matrix(0.06172839506172839,0,0,0.06172839506172839,34.50617283950617,0)" xlink:href="#x"/><use transform="matrix(0.06172839506172839,0,0,0.06172839506172839,46.85185185185185,0)" xlink:href="#u"/><use transform="matrix(0.06172839506172839,0,0,0.06172839506172839,54.197530864197525,0)" xlink:href="#r"/><use transform="matrix(0.06172839506172839,0,0,0.06172839506172839,66.5432098765432,0)" xlink:href="#q"/><use transform="matrix(0.06172839506172839,0,0,0.06172839506172839,84.99999999999999,0)" xlink:href="#r"/><use transform="matrix(0.06172839506172839,0,0,0.06172839506172839,97.34567901234567,0)" xlink:href="#k"/></g><path fill="#3a414a" d="M232-93c-1 65-40 97-104 97C67 4 28-28 28-90v-158h33c8 89-33 224 67 224 102 0 64-133 71-224h33v155" id="y"/><path fill="#3a414a" d="M84 4C-5 8 30-112 23-190h32v120c0 31 7 50 39 49 72-2 45-101 50-169h31l1 190h-30c-1-10 1-25-2-33-11 22-28 36-60 37" id="z"/><g id="e"><use transform="matrix(0.06172839506172839,0,0,0.06172839506172839,0,0)" xlink:href="#y"/><use transform="matrix(0.06172839506172839,0,0,0.06172839506172839,15.987654320987653,0)" xlink:href="#k"/><use transform="matrix(0.06172839506172839,0,0,0.06172839506172839,27.098765432098766,0)" xlink:href="#z"/><use transform="matrix(0.06172839506172839,0,0,0.06172839506172839,39.44444444444444,0)" xlink:href="#r"/><use transform="matrix(0.06172839506172839,0,0,0.06172839506172839,51.79012345679012,0)" xlink:href="#u"/><use transform="matrix(0.06172839506172839,0,0,0.06172839506172839,59.1358024691358,0)" xlink:href="#j"/><use transform="matrix(0.06172839506172839,0,0,0.06172839506172839,64.01234567901234,0)" xlink:href="#m"/></g><path fill="#3a414a" d="M212-179c-10-28-35-45-73-45-59 0-87 40-87 99 0 60 29 101 89 101 43 0 62-24 78-52l27 14C228-24 195 4 139 4 59 4 22-46 18-125c-6-104 99-153 187-111 19 9 31 26 39 46" id="A"/><g id="f"><use transform="matrix(0.06172839506172839,0,0,0.06172839506172839,0,0)" xlink:href="#A"/><use transform="matrix(0.06172839506172839,0,0,0.06172839506172839,15.987654320987653,0)" xlink:href="#w"/><use transform="matrix(0.06172839506172839,0,0,0.06172839506172839,30.80246913580247,0)" xlink:href="#y"/></g><path fill="#3a414a" d="M106-169C34-169 62-67 57 0H25v-261h32l-1 103c12-21 28-36 61-36 89 0 53 116 60 194h-32v-121c2-32-8-49-39-48" id="B"/><g id="g"><use transform="matrix(0.06172839506172839,0,0,0.06172839506172839,0,0)" xlink:href="#A"/><use transform="matrix(0.06172839506172839,0,0,0.06172839506172839,15.987654320987653,0)" xlink:href="#r"/><use transform="matrix(0.06172839506172839,0,0,0.06172839506172839,28.333333333333332,0)" xlink:href="#l"/><use transform="matrix(0.06172839506172839,0,0,0.06172839506172839,39.44444444444444,0)" xlink:href="#B"/><use transform="matrix(0.06172839506172839,0,0,0.06172839506172839,51.79012345679012,0)" xlink:href="#p"/></g><path fill="#3a414a" d="M240 0l2-218c-23 76-54 145-80 218h-23L58-218 59 0H30v-248h44l77 211c21-75 51-140 76-211h43V0h-30" id="C"/><g id="h"><use transform="matrix(0.06172839506172839,0,0,0.06172839506172839,0,0)" xlink:href="#C"/><use transform="matrix(0.06172839506172839,0,0,0.06172839506172839,18.456790123456788,0)" xlink:href="#p"/><use transform="matrix(0.06172839506172839,0,0,0.06172839506172839,30.80246913580247,0)" xlink:href="#q"/><use transform="matrix(0.06172839506172839,0,0,0.06172839506172839,49.25925925925925,0)" xlink:href="#m"/><use transform="matrix(0.06172839506172839,0,0,0.06172839506172839,61.60493827160493,0)" xlink:href="#u"/><use transform="matrix(0.06172839506172839,0,0,0.06172839506172839,68.9506172839506,0)" xlink:href="#j"/><use transform="matrix(0.06172839506172839,0,0,0.06172839506172839,73.82716049382715,0)" xlink:href="#r"/></g></defs></g></svg>